<svg width="59" height="59" viewBox="0 0 59 59" fill="none" xmlns="http://www.w3.org/2000/svg">
<path d="M29.5 0L55.0477 14.75V44.25L29.5 59L3.95225 44.25V14.75L29.5 0Z" fill="url(#paint0_linear_1_884)"/>
<path d="M19.8737 35.0154H25.2833V38.4058L19.8737 39.2587V35.0154Z" fill="url(#paint1_linear_1_884)"/>
<path d="M29.5854 40.71V44.4591L28.9556 44.1215L26.8249 42.9808V42.9793L26.2975 42.6975L19.8737 39.2589L25.2833 38.406L26.8249 39.2318L28.9556 40.3725L29.5854 40.71Z" fill="url(#paint2_linear_1_884)"/>
<path d="M39.2971 34.0605H33.6494V39.2591H39.2971V34.0605Z" fill="url(#paint3_linear_1_884)"/>
<path d="M39.2985 39.2582L32.474 42.9123L31.484 43.4428L30.3433 44.0515L29.5853 44.4584L28.9555 44.1208L26.8248 42.9786L26.2974 42.6969L26.8248 42.3789L28.9555 41.0905L29.5853 40.7093L30.3433 40.2512L32.474 38.9644L33.6388 38.2592H33.6493L39.2985 39.2582Z" fill="url(#paint4_linear_1_884)"/>
<path d="M39.2127 24.5441H33.8031V21.1536L39.2127 20.3022V24.5441Z" fill="url(#paint5_linear_1_884)"/>
<path d="M39.2126 20.3025L33.8015 21.1538L32.4739 20.4426L30.3432 19.3019L29.5009 18.8499H29.4994V15.1023L30.3432 15.5544L31.3362 16.0848L32.4739 16.6935L32.7874 16.8623L39.2126 20.3025Z" fill="url(#paint6_linear_1_884)"/>
<path d="M25.4354 20.3022H19.7877V25.5009H25.4354V20.3022Z" fill="url(#paint7_linear_1_884)"/>
<path d="M32.7874 16.8623L32.474 17.0522L30.3433 18.339L29.5009 18.8499H29.4994L28.9554 19.1799L26.8247 20.4682L25.4475 21.3015L25.4354 21.2985L19.7877 20.3025L26.8247 16.5338L27.6008 16.1179L28.9554 15.3931L29.4994 15.1023L30.3433 15.5544L31.0455 15.9281L32.474 16.6935L32.7874 16.8623Z" fill="url(#paint8_linear_1_884)"/>
<path d="M25.4354 24.2849L26.8247 25.2643V30.4615L19.7877 25.4994V20.3022L25.4354 24.2849Z" fill="url(#paint9_linear_1_884)"/>
<path d="M28.9556 26.7651L30.3434 27.7446V32.9433L28.9556 31.9638V26.7651Z" fill="url(#paint10_linear_1_884)"/>
<path d="M39.2986 34.0585V39.2587L33.6494 35.2746L32.4741 34.4458V29.2471L39.2986 34.0585Z" fill="url(#paint11_linear_1_884)"/>
<path d="M32.4739 20.4429V38.9652L30.3432 40.2521V19.3022L32.4739 20.4429Z" fill="url(#paint12_linear_1_884)"/>
<path d="M32.4739 11.0352V16.6934L30.3432 15.5542V11.0352H32.4739Z" fill="url(#paint13_linear_1_884)"/>
<path d="M26.8247 11.0352H28.9554V15.393L27.6007 16.1178L26.8247 16.5337V11.0352Z" fill="url(#paint14_linear_1_884)"/>
<path d="M26.8247 42.981L28.9554 44.1216V47.8828H26.8247V42.981Z" fill="url(#paint15_linear_1_884)"/>
<path d="M32.4739 42.9127V47.8823H30.3432V44.0518L31.4839 43.4431L32.4739 42.9127Z" fill="url(#paint16_linear_1_884)"/>
<path d="M28.9554 19.1798V40.3723L26.8247 39.2316V20.4682L28.9554 19.1798Z" fill="url(#paint17_linear_1_884)"/>
<path d="M32.4739 20.4429L30.3432 22.1864V19.3022L32.4739 20.4429Z" fill="url(#paint18_linear_1_884)"/>
<path d="M26.8247 20.4682L28.9554 22.0639V19.1798L26.8247 20.4682Z" fill="url(#paint19_linear_1_884)"/>
<path d="M32.4739 38.9546L30.3432 37.2127V40.252L32.4739 38.9546Z" fill="url(#paint20_linear_1_884)"/>
<path d="M26.8247 39.2312L28.9554 37.3325V40.3719L26.8247 39.2312Z" fill="url(#paint21_linear_1_884)"/>
<path d="M19.7877 20.3022L25.4369 23.1306L25.4354 24.2849L19.7877 20.3022Z" fill="url(#paint22_linear_1_884)"/>
<path d="M39.2971 39.2649L33.6494 36.4365V35.2822L39.2971 39.2649Z" fill="url(#paint23_linear_1_884)"/>
<defs>
<linearGradient id="paint0_linear_1_884" x1="7.81802" y1="29.6042" x2="67.7562" y2="30.4382" gradientUnits="userSpaceOnUse">
<stop stop-color="#4776E6"/>
<stop offset="1" stop-color="#8E54E9"/>
</linearGradient>
<linearGradient id="paint1_linear_1_884" x1="19.8739" y1="37.1369" x2="25.2837" y2="37.1369" gradientUnits="userSpaceOnUse">
<stop stop-color="#60E6AF"/>
<stop offset="1" stop-color="#2C9968"/>
</linearGradient>
<linearGradient id="paint2_linear_1_884" x1="19.8741" y1="41.4327" x2="29.5855" y2="41.4327" gradientUnits="userSpaceOnUse">
<stop stop-color="#60E6AF"/>
<stop offset="1" stop-color="#AEEC60"/>
</linearGradient>
<linearGradient id="paint3_linear_1_884" x1="39.2979" y1="36.6593" x2="33.6496" y2="36.6593" gradientUnits="userSpaceOnUse">
<stop stop-color="#60E6AF"/>
<stop offset="1" stop-color="#2C9968"/>
</linearGradient>
<linearGradient id="paint4_linear_1_884" x1="26.2981" y1="41.3585" x2="39.2981" y2="41.3585" gradientUnits="userSpaceOnUse">
<stop stop-color="#60E6AF"/>
<stop offset="1" stop-color="#AEEC60"/>
</linearGradient>
<linearGradient id="paint5_linear_1_884" x1="39.2123" y1="22.423" x2="33.8025" y2="22.423" gradientUnits="userSpaceOnUse">
<stop stop-color="#60E6AF"/>
<stop offset="1" stop-color="#2C9968"/>
</linearGradient>
<linearGradient id="paint6_linear_1_884" x1="29.4998" y1="18.1281" x2="39.2124" y2="18.1281" gradientUnits="userSpaceOnUse">
<stop stop-color="#60E6AF"/>
<stop offset="1" stop-color="#AEEC60"/>
</linearGradient>
<linearGradient id="paint7_linear_1_884" x1="19.7882" y1="22.9011" x2="25.4365" y2="22.9011" gradientUnits="userSpaceOnUse">
<stop stop-color="#60E6AF"/>
<stop offset="1" stop-color="#2C9968"/>
</linearGradient>
<linearGradient id="paint8_linear_1_884" x1="19.7884" y1="18.2016" x2="32.7872" y2="18.2016" gradientUnits="userSpaceOnUse">
<stop stop-color="#60E6AF"/>
<stop offset="1" stop-color="#AEEC60"/>
</linearGradient>
<linearGradient id="paint9_linear_1_884" x1="19.7884" y1="25.3819" x2="26.8249" y2="25.3819" gradientUnits="userSpaceOnUse">
<stop stop-color="#60E6AF"/>
<stop offset="1" stop-color="#2C9968"/>
</linearGradient>
<linearGradient id="paint10_linear_1_884" x1="28.9551" y1="29.8548" x2="30.3438" y2="29.8548" gradientUnits="userSpaceOnUse">
<stop stop-color="#60E6AF"/>
<stop offset="1" stop-color="#2C9968"/>
</linearGradient>
<linearGradient id="paint11_linear_1_884" x1="32.4739" y1="34.2526" x2="39.2981" y2="34.2526" gradientUnits="userSpaceOnUse">
<stop stop-color="#60E6AF"/>
<stop offset="1" stop-color="#2C9968"/>
</linearGradient>
<linearGradient id="paint12_linear_1_884" x1="31.4087" y1="40.2521" x2="31.4087" y2="19.3019" gradientUnits="userSpaceOnUse">
<stop stop-color="#60E6AF"/>
<stop offset="1" stop-color="#AEEC60"/>
</linearGradient>
<linearGradient id="paint13_linear_1_884" x1="31.4087" y1="16.6928" x2="31.4087" y2="11.0355" gradientUnits="userSpaceOnUse">
<stop stop-color="#60E6AF"/>
<stop offset="1" stop-color="#AEEC60"/>
</linearGradient>
<linearGradient id="paint14_linear_1_884" x1="27.8899" y1="16.5337" x2="27.8899" y2="11.0355" gradientUnits="userSpaceOnUse">
<stop stop-color="#60E6AF"/>
<stop offset="1" stop-color="#AEEC60"/>
</linearGradient>
<linearGradient id="paint15_linear_1_884" x1="27.8899" y1="47.8828" x2="27.8899" y2="42.9813" gradientUnits="userSpaceOnUse">
<stop stop-color="#60E6AF"/>
<stop offset="1" stop-color="#AEEC60"/>
</linearGradient>
<linearGradient id="paint16_linear_1_884" x1="31.4087" y1="47.8823" x2="31.4087" y2="42.9121" gradientUnits="userSpaceOnUse">
<stop stop-color="#60E6AF"/>
<stop offset="1" stop-color="#AEEC60"/>
</linearGradient>
<linearGradient id="paint17_linear_1_884" x1="27.8899" y1="40.3723" x2="27.8899" y2="19.1798" gradientUnits="userSpaceOnUse">
<stop stop-color="#60E6AF"/>
<stop offset="1" stop-color="#AEEC60"/>
</linearGradient>
<linearGradient id="paint18_linear_1_884" x1="31.1596" y1="22.0886" x2="31.4185" y2="19.7853" gradientUnits="userSpaceOnUse">
<stop stop-color="#60E6AF" stop-opacity="0"/>
<stop offset="1" stop-color="#2A422F"/>
</linearGradient>
<linearGradient id="paint19_linear_1_884" x1="28.1308" y1="21.9674" x2="27.8719" y2="19.6641" gradientUnits="userSpaceOnUse">
<stop stop-color="#60E6AF" stop-opacity="0"/>
<stop offset="1" stop-color="#2A422F"/>
</linearGradient>
<linearGradient id="paint20_linear_1_884" x1="31.1521" y1="37.3209" x2="31.425" y2="39.7485" gradientUnits="userSpaceOnUse">
<stop stop-color="#60E6AF" stop-opacity="0"/>
<stop offset="1" stop-color="#2A422F"/>
</linearGradient>
<linearGradient id="paint21_linear_1_884" x1="28.155" y1="37.4428" x2="27.8822" y2="39.8694" gradientUnits="userSpaceOnUse">
<stop stop-color="#60E6AF" stop-opacity="0"/>
<stop offset="1" stop-color="#2A422F"/>
</linearGradient>
<linearGradient id="paint22_linear_1_884" x1="22.6417" y1="21.562" x2="22.5513" y2="23.8123" gradientUnits="userSpaceOnUse">
<stop stop-color="#60E6AF" stop-opacity="0"/>
<stop offset="1" stop-color="#2A422F"/>
</linearGradient>
<linearGradient id="paint23_linear_1_884" x1="36.4444" y1="38.0049" x2="36.5348" y2="35.7546" gradientUnits="userSpaceOnUse">
<stop stop-color="#60E6AF" stop-opacity="0"/>
<stop offset="1" stop-color="#2A422F"/>
</linearGradient>
</defs>
</svg>
